<svg xmlns="http://www.w3.org/2000/svg" width="16" height="16">
  <path d="M 2 0 C 0.892 0 0 0.892 0 2 L 0 11 C 0 12.108 0.892 13 2 13 L 10 13 L 10 11 L 2 11 L 2 2 L 14 2 L 14 10 L 16 10 L 16 2 C 16 0.892 15.108 0 14 0 L 2 0 z M 4 4 L 4 9 L 5 9 L 5 4 L 4 4 z M 8 4 L 6 9 L 7 9 L 9 4 L 8 4 z M 11.5 4 C 10.669 4 10 4.669 10 5.5 L 10 7.5 C 10 8.331 10.669 9 11.5 9 C 12.331 9 13 8.331 13 7.5 L 13 5.5 C 13 4.669 12.331 4 11.5 4 z M 11.5 5 C 11.777 5 12 5.223 12 5.5 L 12 7.5 C 12 7.777 11.777 8 11.5 8 C 11.223 8 11 7.777 11 7.5 L 11 5.5 C 11 5.223 11.223 5 11.5 5 z M 11 11 L 11 16 L 16 16 L 16 11 L 11 11 z M 12 12 L 13 12 L 13 13 L 14 13 L 14 12 L 15 12 L 15 14 L 14 14 L 14 15 L 13 15 L 13 14 L 12 14 L 12 12 z M 6 14 C 5.446 14 5 14.446 5 15 L 5 16 L 10 16 L 10 15 L 10 14 L 9 14 L 6 14 z " fill="#c0bfbc" />
</svg>
