<?xml version="1.0" encoding="UTF-8"?>
<svg version="1.1" viewBox="0 0 128 128" xmlns="http://www.w3.org/2000/svg">
<path d="m32 96c-2.216 0-4 1.9822-4 4.4444v11.111c0 2.4622 1.784 4.4444 4 4.4444h64c2.216 0 4-1.9822 4-4.4444v-11.111c0-2.4622-1.784-4.4444-4-4.4444z" fill="#5e5c64" stroke-width="2"/>
<path d="m32 92c-2.216 0-4 1.9822-4 4.4444v11.111c0 2.4622 1.784 4.4444 4 4.4444h64c2.216 0 4-1.9822 4-4.4444v-11.111c0-2.4622-1.784-4.4444-4-4.4444z" fill="#9a9996" stroke-width="2"/>
<path d="m12 20c-2.216 0-4 1.8297-4 4.1026v71.794c0 2.2728 1.784 4.1026 4 4.1026h104c2.216 0 4-1.8297 4-4.1026v-71.794c0-2.2728-1.784-4.1026-4-4.1026z" fill="#5e5c64" stroke-width="2"/>
<path d="m12 16c-2.216 0-4 1.784-4 4v72c0 2.216 1.784 4 4 4h104c2.216 0 4-1.784 4-4v-72c0-2.216-1.784-4-4-4z" fill="#9a9996" stroke-width="2"/>
<rect x="12" y="20" width="104" height="72" ry="0" fill="#3d3846" stroke-width="2"/>
<rect x="16" y="24" width="96" height="64" ry="0" fill="#241f31" stroke-width="2"/>
<path d="m16 24h72l-16 64h-56z" fill="#fff" opacity=".2" stroke-width="2"/>
<rect x="32" y="36" width="8" height="40" fill="#2ec27e"/>
<path d="m56 76 12-40h4l-12 40z" fill="#fff"/>
<path d="m92 36c-6.648 0-12 5.352-12 12v16c0 6.648 5.352 12 12 12s12-5.352 12-12v-16c0-6.648-5.352-12-12-12zm0 8c2.216 0 4 1.784 4 4v16c0 2.216-1.784 4-4 4s-4-1.784-4-4v-16c0-2.216 1.784-4 4-4z" fill="#e01b24"/>
</svg>
